<?xml version="1.0" encoding="utf-8"?>
<!-- Generator: Adobe Illustrator 21.1.0, SVG Export Plug-In . SVG Version: 6.00 Build 0)  -->
<svg version="1.1" id="Layer_1" xmlns="http://www.w3.org/2000/svg" xmlns:xlink="http://www.w3.org/1999/xlink" x="0px" y="0px"
	 viewBox="0 0 131.1 91.1" style="enable-background:new 0 0 131.1 91.1;" xml:space="preserve">
<style type="text/css">
	.st0{fill:#E1004F;}
	.st1{fill:#FFFFFF;}
	.st2{fill:#0043A4;}
</style>
<g>
	<path id="red_x5F_bg" class="st0" d="M-17.4,18.5C-25.9,10.3-41,8.3-52.2,8.6c-9.2,0.2-18.4,1.9-27.2,4.9c-4.2-2.8-11.6,0.2-16,1.6
		c-6,1.9-11.8,4.5-17.2,7.9c-10.5,6.5-20.1,15.7-26.1,26.6c-5.7,10.3-4.3,21.6,7,26.9c7.3,3.4,15.7,4.7,24.1,4.9c3.7,3,8.3,5,12.9,6
		c16.9,3.6,37.7,2,53.9-4.3c14.4-5.6,27.4-20.2,22-36.4C-12.5,38.2-8.6,26.8-17.4,18.5z M-85.4,43.3c1.3,0.6,2.8,0.7,4.4,0
		c1.9-0.9,3.9-1.8,5.9-2.6c1.2,0.6,2.8,0.7,4.4-0.3c0.1-0.1,0.2-0.1,0.4-0.2c0.9-0.6,1.6-1.3,2-2.1c2.1-0.8,4.3-1.5,6.4-2.2
		c1.9-0.6,10.7-3.8,15.3-3.9c-4.5,5.3-11.2,8.9-17.5,11.4c-5.7,2.3-18.9,7.2-24,1.4C-87.4,44.3-86.4,43.8-85.4,43.3z M-96.4,50.7
		c2.4,3,5.4,4.7,8.8,5.6c-0.4,0.1-0.9,0.3-1.2,0.5c-4.3,0.3-8.6,0.4-12.9,0.3c0,0,0,0,0,0C-100.2,54.7-98.4,52.6-96.4,50.7z
		 M-114.5,70.7c-7.8-0.8-18.2-2.9-17.8-10c0.2-2.4,1.3-5,2.7-7.3c1.1,1.8,3.1,2.9,5.1,2.4c0.6,2,1.7,3.9,3.6,5.7
		c1.7,1.7,3.7,2.9,5.8,3.7C-115.1,67-115,68.9-114.5,70.7z M-111.2,53.3c-0.4,0.7-0.8,1.5-1.2,2.3c-1.1-0.6-1.9-1.4-2.3-2.6
		c-0.3-0.9-0.3-1.8,0-2.7c1,1.3,2.5,2.2,4.1,2.1C-110.9,52.8-111.1,53-111.2,53.3z M-103.3,71.3c-0.9-1.4-1.4-2.8-1.6-4.3
		c0.7,0,1.3,0.1,2,0.1c7.8,0.2,15.5-0.2,23.3-1.2c10.5-1.3,20.9-3.7,30.9-7.2c-8.7,4.6-18,7.7-27.6,9.8
		C-85.2,70.3-94.3,71.3-103.3,71.3z M-46.2,74.6c-10.1,3.4-21.2,4.6-32,4.4c18.3-3.3,36.7-10.1,50.5-22.4
		C-29.1,65.2-37.7,71.7-46.2,74.6z M-23.9,36.5c-1.8,3.5-4.2,6.6-7,9.5c-0.8-1.5-2.2-2.6-3.9-2.9c1.8-2.6,3.1-5.5,3.3-8.7
		c0.4-6.1-2.8-11.5-8.1-14.4c-0.3-0.1-0.5-0.3-0.8-0.4c4.4,0.8,9.2,2.1,13.2,4.3C-21.8,26.7-21.2,31.1-23.9,36.5z"/>
	<g>
		<path id="r" class="st1" d="M-101.7,28.3c-6.2,2.7-12.8,8.3-14.5,15.2c-1-0.7-1.9-1.4-2.9-2.1c-4-2.9-8,3.7-4,6.6
			c6.6,4.8,13.2,9.6,19.8,14.4c3.5,2.5,8.2-3.2,4.8-6c-0.2-0.2-0.5-0.4-0.8-0.6l0,0c-0.3-0.2-0.6-0.4-0.9-0.6c0,0-0.1,0-0.1-0.1
			c-0.6-0.4-1.2-0.9-1.8-1.3c-3.3-2.5-7.2-5.6-6.5-8.7c1-4.6,6.8-8.2,10.7-10C-93.4,33-97.1,26.3-101.7,28.3z"/>
		<path id="e" class="st1" d="M-68.4,47.5c-3.4,2.6-8.9,4.7-12.8,3.4c4-1.2,8-2.6,11.9-4.3c1.5-0.7,2.2-2.8,1.9-4.3
			C-69,36-74.4,30.8-81,30.5c-7.6-0.4-12.4,5.3-12.3,12.6c0,6.2,2.7,13,9,15.2c7.3,2.5,15.6-0.7,21.4-5.2
			C-59.1,50-64.5,44.5-68.4,47.5z M-81.3,38.2c2.1,0.2,3.8,1.3,4.9,2.9c-2.8,1.1-5.7,2-8.7,2.8c-0.2,0.1-0.4,0.1-0.6,0.2
			C-85.9,41.1-85.1,37.9-81.3,38.2z"/>
		<path id="d" class="st1" d="M-39.1,19.6c1.1-5.6,1.7-7.2,0.8-13.1c-0.7-4.4-7.4-3.4-7.6,0.8c-0.3,5.7,0.4,3.1-0.2,8.7
			c-0.4,1.7-0.8,3.4-1.1,5.1c-0.9-0.5-1.8-0.9-2.9-1.2c-4.2-0.9-8.3,1.4-10.9,4.6c-5.5,6.8-4.6,19,3.2,23.9c3.7,2.3,6.7,2,9.1,0.4
			c0,0.1,0,0.2,0,0.2c0.1,5,7.8,5.2,7.7,0.2C-41,44-41,38.6-40.8,33.1C-39.7,27.3-39.7,25.6-39.1,19.6z M-49.5,37
			c-1,3.6-1.9,6.8-4.7,4.6c-2-1.5-2.6-4.7-2.5-7c0.1-2.3,1.1-5.6,3.5-6.6C-50.5,26.8-48.5,33.4-49.5,37z"/>
	</g>
</g>
<g>
	<path id="blue_x5F_bg" class="st2" d="M7.3,48.2c-5.4,16.3,7.6,30.9,22,36.4c16.2,6.3,37,7.9,53.9,4.3c4.7-1,9.2-3,12.9-6
		c8.4-0.2,16.9-1.5,24.1-4.9c11.3-5.4,12.7-16.6,7-26.9c-6-10.9-15.6-20.1-26.1-26.6C95.8,21.1,90,18.5,84,16.6
		c-4.3-1.4-11.7-4.4-16-1.6c-8.8-2.9-17.9-4.7-27.2-4.9C29.6,9.8,14.5,11.8,6,19.9C-2.8,28.3,1.1,39.7,7.3,48.2z M76.9,46.3
		c-5.1,5.8-18.3,0.8-24-1.4c-6.3-2.5-13.1-6.1-17.5-11.4c4.6,0.1,13.4,3.4,15.3,3.9c2.2,0.7,4.3,1.4,6.4,2.2c0.4,0.8,1,1.6,2,2.1
		c0.1,0.1,0.2,0.1,0.4,0.2c1.6,1,3.1,0.9,4.4,0.3c2,0.8,3.9,1.7,5.9,2.6c1.6,0.8,3.1,0.6,4.4,0C75,45.3,76,45.8,76.9,46.3z
		 M90.4,58.5C90.4,58.5,90.3,58.5,90.4,58.5c-4.4,0.1-8.7,0-13-0.3c-0.3-0.2-0.8-0.3-1.2-0.5c3.4-0.9,6.4-2.6,8.8-5.6
		C87,54.1,88.8,56.2,90.4,58.5z M103.7,66.7c2.1-0.8,4.1-2,5.8-3.7c1.8-1.8,3-3.7,3.6-5.7c2,0.5,4-0.7,5.1-2.4
		c1.5,2.4,2.6,4.9,2.7,7.3c0.5,7.1-10,9.3-17.8,10C103.6,70.4,103.8,68.5,103.7,66.7z M99.3,53.9c1.6,0,3.1-0.8,4.1-2.1
		c0.2,0.9,0.3,1.8,0,2.7c-0.4,1.2-1.2,2-2.3,2.6c-0.4-0.8-0.8-1.5-1.2-2.3C99.7,54.5,99.5,54.2,99.3,53.9z M65,69.9
		c-9.6-2-19-5.2-27.6-9.8c10,3.5,20.3,5.9,30.9,7.2c7.7,0.9,15.5,1.4,23.3,1.2c0.7,0,1.3,0,2-0.1c-0.1,1.5-0.6,2.9-1.6,4.3
		C82.9,72.8,73.9,71.8,65,69.9z M16.4,58c13.8,12.3,32.2,19.1,50.5,22.4c-10.8,0.2-21.9-1-32-4.4C26.3,73.2,17.7,66.7,16.4,58z
		 M15.8,25.2c4-2.2,8.7-3.5,13.2-4.3c-0.3,0.1-0.5,0.3-0.8,0.4c-5.3,2.9-8.5,8.3-8.1,14.4c0.2,3.3,1.5,6.2,3.3,8.7
		c-1.7,0.3-3.1,1.4-3.9,2.9c-2.8-2.8-5.3-6-7-9.5C9.8,32.6,10.4,28.2,15.8,25.2z"/>
	<g id="blue">
		<path id="l" class="st1" d="M59.7,58.5C61.5,40.7,63.3,23,65,5.3c0.6-6.4-9.4-6.4-10,0c-1.8,17.7-3.5,35.4-5.3,53.2
			C49.1,64.8,59.1,64.8,59.7,58.5z"/>
		<path id="u" class="st1" d="M95.5,41.3c1.3-6.3-8.4-8.4-9.8-2.1c-0.7,3.3-4.2,19.9-9.9,16.3c-4.5-2.8-0.7-15.8,0.3-19.7
			c1.5-6.3-8.3-8.4-9.8-2.1c-2.4,9.9-5.8,27.6,7.2,31.8C87.5,70,93.4,51.2,95.5,41.3z"/>
		<path id="e_1_" class="st1" d="M112.2,67.2c4.2,1.5,6.7-1,7.8-5c2.1-7.3-1.4-17.3-9.1-19.9c-9-3.1-15.1,8.8-17.2,15.8
			c-2.6,8.5,2.2,17.6,11.5,18.5c5.2,0.5,7-7.6,1.6-8.1c-5-0.5-5.9-3.7-5.2-7.2C104.9,63.7,108.5,65.9,112.2,67.2z M104.9,53.6
			c0.6-1,1.9-3.6,3.3-3.6c1.1,0,2.4,2,2.8,2.8c0.7,1.2,1.6,3.7,1.5,5.7C109.9,57.3,107.2,55.3,104.9,53.6z"/>
		<path class="st1" d="M45.1,37.3C42.4,29,33.3,19.5,23.7,23.8c-0.1,0.1-0.2,0.1-0.4,0.2c-0.5-4.8-1-9.6-1.4-14.5
			c-0.5-6-10-6.1-9.5,0C14,27,16.1,44.5,19,61.8c0.7,4,4.9,4.2,7.4,2.1c3.8,2.2,8.7,3.1,12.6,0.8C47.9,59.6,47.8,45.8,45.1,37.3z
			 M36.3,53.2c-0.9,2.3-1.6,3.8-4.1,3c-0.9-0.3-4-1.1-5.2-6.4s-3.2-15.3,0.4-17.3c4-2.2,8,5.4,8.8,8.1
			C37.4,44.5,37.8,49.3,36.3,53.2z"/>
	</g>
</g>
</svg>
