<?xml version="1.0" encoding="utf-8"?>
<!-- Generator: Adobe Illustrator 21.1.0, SVG Export Plug-In . SVG Version: 6.00 Build 0)  -->
<svg version="1.1" id="Layer_1" xmlns="http://www.w3.org/2000/svg" xmlns:xlink="http://www.w3.org/1999/xlink" x="0px" y="0px"
	 viewBox="0 0 226.5 152.5" style="enable-background:new 0 0 226.5 152.5;" xml:space="preserve">
<style type="text/css">
	.st0{fill:url(#SVGID_1_);}
</style>
<linearGradient id="SVGID_1_" gradientUnits="userSpaceOnUse" x1="43.7454" y1="175.5298" x2="161.7311" y2="-28.8273">
	<stop  offset="0" style="stop-color:#00AEEF"/>
	<stop  offset="5.378270e-02" style="stop-color:#10AFE3"/>
	<stop  offset="0.4087" style="stop-color:#75B798"/>
	<stop  offset="0.6949" style="stop-color:#BFBD61"/>
	<stop  offset="0.8982" style="stop-color:#ECC13F"/>
	<stop  offset="1" style="stop-color:#FEC232"/>
</linearGradient>
<path class="st0" d="M206.3,0h-186c-11,0-20,9-20,20v70c0,4.7,1.5,9.7,3.3,13.7s14.4,24.3,16,26.3c2,2.7,2.3,4.7-0.3,7
	c-2.7,2.3-16.8,14.2-16.3,15s40.3-16.3,43.7-17.7c3.3-1.3,3-3.2,1.5-6c-0.6-1-5.6-10-8.9-18.3h167.1c11,0,20-9,20-20V20
	C226.3,9,217.3,0,206.3,0z"/>
</svg>
