<?xml version="1.0" encoding="utf-8"?>
<!-- Generator: Adobe Illustrator 21.1.0, SVG Export Plug-In . SVG Version: 6.00 Build 0)  -->
<svg version="1.1" id="Layer_1" xmlns="http://www.w3.org/2000/svg" xmlns:xlink="http://www.w3.org/1999/xlink" x="0px" y="0px"
	 viewBox="0 0 132.3 87" style="enable-background:new 0 0 132.3 87;" xml:space="preserve">
<style type="text/css">
	.st0{fill:#E1004F;}
	.st1{fill:#FFFFFF;}
	.st2{fill:#0043A4;}
</style>
<g>
	<path id="red_x5F_bg" class="st0" d="M126.7,15.1C118.1,7,103.1,5,91.8,5.3c-9.2,0.2-18.4,1.9-27.2,4.9c-4.2-2.8-11.6,0.2-16,1.6
		c-6,1.9-11.8,4.5-17.2,7.9C21,26.1,11.4,35.3,5.4,46.2c-5.7,10.3-4.3,21.6,7,26.9c7.3,3.4,15.7,4.7,24.1,4.9c3.7,3,8.3,5,12.9,6
		c16.9,3.6,37.7,2,53.9-4.3c14.4-5.6,27.4-20.2,22-36.4C131.5,34.9,135.5,23.4,126.7,15.1z M58.6,40c1.3,0.6,2.8,0.7,4.4,0
		c1.9-0.9,3.9-1.8,5.9-2.6c1.2,0.6,2.8,0.7,4.4-0.3c0.1-0.1,0.2-0.1,0.4-0.2c0.9-0.6,1.6-1.3,2-2.1c2.1-0.8,4.3-1.5,6.4-2.2
		c1.9-0.6,10.7-3.8,15.3-3.9C92.9,34,86.1,37.5,79.8,40c-5.7,2.3-18.9,7.2-24,1.4C56.7,40.9,57.7,40.5,58.6,40z M47.7,47.4
		c2.4,3,5.4,4.7,8.8,5.6c-0.4,0.1-0.9,0.3-1.2,0.5c-4.3,0.3-8.6,0.4-12.9,0.3c0,0,0,0,0,0C43.9,51.4,45.7,49.3,47.7,47.4z
		 M29.6,67.4c-7.8-0.8-18.2-2.9-17.8-10c0.2-2.4,1.3-5,2.7-7.3c1.1,1.8,3.1,2.9,5.1,2.4c0.6,2,1.7,3.9,3.6,5.7
		c1.7,1.7,3.7,2.9,5.8,3.7C28.9,63.7,29.1,65.6,29.6,67.4z M32.9,50c-0.4,0.7-0.8,1.5-1.2,2.3c-1.1-0.6-1.9-1.4-2.3-2.6
		c-0.3-0.9-0.3-1.8,0-2.7c1,1.3,2.5,2.2,4.1,2.1C33.2,49.4,33,49.7,32.9,50z M40.8,68c-0.9-1.4-1.4-2.8-1.6-4.3c0.7,0,1.3,0.1,2,0.1
		c7.8,0.2,15.5-0.2,23.3-1.2c10.5-1.3,20.9-3.7,30.9-7.2c-8.7,4.6-18,7.7-27.6,9.8C58.8,67,49.8,68,40.8,68z M97.9,71.2
		c-10.1,3.4-21.2,4.6-32,4.4c18.3-3.3,36.7-10.1,50.5-22.4C115,61.8,106.4,68.4,97.9,71.2z M120.2,33.1c-1.8,3.5-4.2,6.6-7,9.5
		c-0.8-1.5-2.2-2.6-3.9-2.9c1.8-2.6,3.1-5.5,3.3-8.7c0.4-6.1-2.8-11.5-8.1-14.4c-0.3-0.1-0.5-0.3-0.8-0.4c4.4,0.8,9.2,2.1,13.2,4.3
		C122.2,23.3,122.9,27.8,120.2,33.1z"/>
	<g>
		<path id="r" class="st1" d="M42.4,24.9c-6.2,2.7-12.8,8.3-14.5,15.2c-1-0.7-1.9-1.4-2.9-2.1c-4-2.9-8,3.7-4,6.6
			c6.6,4.8,13.2,9.6,19.8,14.4c3.5,2.5,8.2-3.2,4.8-6c-0.2-0.2-0.5-0.4-0.8-0.6l0,0c-0.3-0.2-0.6-0.4-0.9-0.6c0,0-0.1,0-0.1-0.1
			c-0.6-0.4-1.2-0.9-1.8-1.3c-3.3-2.5-7.2-5.6-6.5-8.7c1-4.6,6.8-8.2,10.7-10C50.7,29.7,46.9,23,42.4,24.9z"/>
		<path id="e" class="st1" d="M75.7,44.1c-3.4,2.6-8.9,4.7-12.8,3.4c4-1.2,8-2.6,11.9-4.3c1.5-0.7,2.2-2.8,1.9-4.3
			c-1.5-6.3-6.9-11.4-13.6-11.8c-7.6-0.4-12.4,5.3-12.3,12.6c0,6.2,2.7,13,9,15.2c7.3,2.5,15.6-0.7,21.4-5.2
			C85,46.7,79.6,41.1,75.7,44.1z M62.8,34.9c2.1,0.2,3.8,1.3,4.9,2.9c-2.8,1.1-5.7,2-8.7,2.8c-0.2,0.1-0.4,0.1-0.6,0.2
			C58.2,37.7,59,34.6,62.8,34.9z"/>
		<path id="d" class="st1" d="M105,16.3c1.1-5.6,1.7-7.2,0.8-13.1c-0.7-4.4-7.4-3.4-7.6,0.8c-0.3,5.7,0.4,3.1-0.2,8.7
			c-0.4,1.7-0.8,3.4-1.1,5.1C96,17.4,95,17,94,16.7c-4.2-0.9-8.3,1.4-10.9,4.6c-5.5,6.8-4.6,19,3.2,23.9c3.7,2.3,6.7,2,9.1,0.4
			c0,0.1,0,0.2,0,0.2c0.1,5,7.8,5.2,7.7,0.2c-0.1-5.4-0.1-10.9,0.1-16.3C104.4,23.9,104.4,22.2,105,16.3z M94.6,33.6
			c-1,3.6-1.9,6.8-4.7,4.6c-2-1.5-2.6-4.7-2.5-7c0.1-2.3,1.1-5.6,3.5-6.6C93.6,23.5,95.6,30.1,94.6,33.6z"/>
	</g>
</g>
<g>
	<path id="blue_x5F_bg" class="st2" d="M151.6,43.2c-5.4,16.3,7.6,30.9,22,36.4c16.2,6.3,37,7.9,53.9,4.3c4.7-1,9.2-3,12.9-6
		c8.4-0.2,16.9-1.5,24.1-4.9c11.3-5.4,12.7-16.6,7-26.9c-6-10.9-15.6-20.1-26.1-26.6c-5.4-3.3-11.2-5.9-17.2-7.9
		c-4.3-1.4-11.7-4.4-16-1.6c-8.8-2.9-17.9-4.7-27.2-4.9c-11.2-0.3-26.3,1.7-34.9,9.9C141.4,23.3,145.4,34.7,151.6,43.2z M221.2,41.3
		c-5.1,5.8-18.3,0.8-24-1.4c-6.3-2.5-13.1-6.1-17.5-11.4c4.6,0.1,13.4,3.4,15.3,3.9c2.2,0.7,4.3,1.4,6.4,2.2c0.4,0.8,1,1.6,2,2.1
		c0.1,0.1,0.2,0.1,0.4,0.2c1.6,1,3.1,0.9,4.4,0.3c2,0.8,3.9,1.7,5.9,2.6c1.6,0.8,3.1,0.6,4.4,0C219.3,40.3,220.2,40.8,221.2,41.3z
		 M234.6,53.5C234.6,53.5,234.6,53.5,234.6,53.5c-4.4,0.1-8.7,0-13-0.3c-0.3-0.2-0.8-0.3-1.2-0.5c3.4-0.9,6.4-2.6,8.8-5.6
		C231.3,49.1,233.1,51.2,234.6,53.5z M247.9,61.7c2.1-0.8,4.1-2,5.8-3.7c1.8-1.8,3-3.7,3.6-5.7c2,0.5,4-0.7,5.1-2.4
		c1.5,2.4,2.6,4.9,2.7,7.3c0.5,7.1-10,9.3-17.8,10C247.8,65.4,248,63.5,247.9,61.7z M243.5,48.9c1.6,0,3.1-0.8,4.1-2.1
		c0.2,0.9,0.3,1.8,0,2.7c-0.4,1.2-1.2,2-2.3,2.6c-0.4-0.8-0.8-1.5-1.2-2.3C243.9,49.5,243.7,49.2,243.5,48.9z M209.3,64.9
		c-9.6-2-19-5.2-27.6-9.8c10,3.5,20.3,5.9,30.9,7.2c7.7,0.9,15.5,1.4,23.3,1.2c0.7,0,1.3,0,2-0.1c-0.1,1.5-0.6,2.9-1.6,4.3
		C227.2,67.8,218.1,66.8,209.3,64.9z M160.6,53c13.8,12.3,32.2,19.1,50.5,22.4c-10.8,0.2-21.9-1-32-4.4
		C170.6,68.2,162,61.7,160.6,53z M160.1,20.2c4-2.2,8.7-3.5,13.2-4.3c-0.3,0.1-0.5,0.3-0.8,0.4c-5.3,2.9-8.5,8.3-8.1,14.4
		c0.2,3.3,1.5,6.2,3.3,8.7c-1.7,0.3-3.1,1.4-3.9,2.9c-2.8-2.8-5.3-6-7-9.5C154.1,27.6,154.7,23.2,160.1,20.2z"/>
	<g id="blue">
		<path id="d_1_" class="st1" d="M163.6,36.7c0.3,6.2,0.2,12.5,0.1,18.7c-0.1,5.7,8.8,5.4,8.9-0.3c0-0.1,0-0.2,0-0.3
			c2.8,1.9,6.3,2.1,10.5-0.5c8.9-5.6,10-19.5,3.7-27.4c-2.9-3.6-7.7-6.3-12.5-5.2c-1.2,0.3-2.3,0.7-3.3,1.3c-0.4-2-0.3-2.2-1.2-5.9
			s-0.8,0.3-2.1-8.5S159,1.3,159,7.8s1.5,9.3,2.5,14.3S162.4,30,163.6,36.7z M172.4,36.5c0-1.2,2.3-7,5.5-5.6c2.7,1.1,3.8,5,4,7.5
			c0.1,2.7-0.6,6.3-2.9,8c-3.2,2.5-5.1-0.8-5.8-3.2C172.7,41.6,172.4,37.7,172.4,36.5z"/>
		<path id="l" class="st1" d="M204,53.5c1.8-17.7,3.5-35.4,5.3-53.2c0.6-6.4-9.4-6.4-10,0c-1.8,17.7-3.5,35.4-5.3,53.2
			C193.4,59.8,203.4,59.8,204,53.5z"/>
		<path id="u" class="st1" d="M239.8,36.3c1.3-6.3-8.4-8.4-9.8-2.1c-0.7,3.3-4.2,19.9-9.9,16.3c-4.5-2.8-0.7-15.8,0.3-19.7
			c1.5-6.3-8.3-8.4-9.8-2.1c-2.4,9.9-5.8,27.6,7.2,31.8C231.7,65,237.7,46.2,239.8,36.3z"/>
		<path id="e_1_" class="st1" d="M256.4,62.2c4.2,1.5,6.7-1,7.8-5c2.1-7.3-1.4-17.3-9.1-19.9c-9-3.1-15.1,8.8-17.2,15.8
			c-2.6,8.5,2.2,17.6,11.5,18.5c5.2,0.5,7-7.6,1.6-8.1c-5-0.5-5.9-3.7-5.2-7.2C249.2,58.7,252.7,60.9,256.4,62.2z M249.2,48.6
			c0.6-1,1.9-3.6,3.3-3.6c1.1,0,2.4,2,2.8,2.8c0.7,1.2,1.6,3.7,1.5,5.7C254.1,52.3,251.4,50.3,249.2,48.6z"/>
	</g>
</g>
</svg>
